<svg width="632" height="632" viewBox="0 0 632 632" fill="none" xmlns="http://www.w3.org/2000/svg">
<g clip-path="url(#clip0_74_6348)">
<circle cx="316" cy="316" r="316" fill="#FCEEAC"/>
<path d="M423.812 206.432H395.062V172.25C395.058 168.439 393.542 164.785 390.847 162.09C388.152 159.395 384.499 157.879 380.688 157.875H222.562C218.751 157.879 215.098 159.395 212.403 162.09C209.708 164.785 208.192 168.439 208.188 172.25V301.625H179.438V172.25C179.45 160.816 183.998 149.855 192.082 141.77C200.167 133.685 211.129 129.138 222.562 129.125H380.688C392.121 129.138 403.083 133.685 411.168 141.77C419.252 149.855 423.8 160.816 423.812 172.25V206.432Z" fill="white"/>
<path d="M352.75 226.238L365.352 195.541C366.434 192.904 368.277 190.648 370.645 189.06C373.013 187.473 375.799 186.625 378.65 186.625H440.225C443.076 186.625 445.862 187.473 448.23 189.061C450.597 190.648 452.44 192.904 453.522 195.541L466.123 226.238H352.75Z" fill="#FFB300"/>
<path d="M344.75 215.375H474.125C481.75 215.375 489.063 218.404 494.454 223.796C499.846 229.187 502.875 236.5 502.875 244.125V502.875H316V244.125C316 236.5 319.029 229.187 324.421 223.796C329.812 218.404 337.125 215.375 344.75 215.375Z" fill="#FFD54F"/>
<path d="M316 287.25H502.875V316H316V287.25Z" fill="#FFB300"/>
<path d="M151.5 326.871L164.102 296.174C165.185 293.538 167.027 291.283 169.395 289.696C171.762 288.109 174.548 287.261 177.398 287.261H210.224C213.074 287.261 215.86 288.109 218.228 289.696C220.595 291.283 222.438 293.538 223.521 296.174L236.122 326.871H151.5Z" fill="#7CB342"/>
<path d="M157.875 316H229.75C237.375 316 244.688 319.029 250.079 324.421C255.471 329.812 258.5 337.125 258.5 344.75V502.875H129.125V344.75C129.125 337.125 132.154 329.812 137.546 324.421C142.937 319.029 150.25 316 157.875 316Z" fill="#9CCC65"/>
<path d="M452.562 402.25H466.938C466.938 413.687 462.394 424.656 454.306 432.744C446.219 440.831 435.25 445.375 423.812 445.375H409.438C409.438 433.938 413.981 422.969 422.069 414.881C430.156 406.794 441.125 402.25 452.562 402.25Z" fill="#9CCC65"/>
<path d="M409.438 445.375H395.062C383.625 445.375 372.656 440.831 364.569 432.744C356.481 424.656 351.938 413.687 351.938 402.25H366.312C377.75 402.25 388.719 406.794 396.806 414.881C404.894 422.969 409.437 433.938 409.438 445.375Z" fill="#9CCC65"/>
<path d="M441.781 351.938H452.562V355.531C452.562 364.109 449.155 372.336 443.089 378.402C437.024 384.467 428.797 387.875 420.219 387.875H409.438V384.281C409.438 375.703 412.845 367.476 418.911 361.411C424.976 355.345 433.203 351.938 441.781 351.938Z" fill="#9CCC65"/>
<path d="M409.438 387.875H398.656C390.078 387.875 381.851 384.467 375.786 378.402C369.72 372.336 366.312 364.109 366.312 355.531V351.938H377.094C385.672 351.938 393.899 355.345 399.964 361.411C406.03 367.476 409.438 375.703 409.438 384.281V387.875Z" fill="#9CCC65"/>
<path d="M409.438 481.312C407.531 481.312 405.703 480.555 404.355 479.207C403.007 477.859 402.25 476.031 402.25 474.125V344.75C402.25 342.844 403.007 341.016 404.355 339.668C405.703 338.32 407.531 337.562 409.438 337.562C411.344 337.562 413.172 338.32 414.52 339.668C415.868 341.016 416.625 342.844 416.625 344.75V474.125C416.625 476.031 415.868 477.859 414.52 479.207C413.172 480.555 411.344 481.312 409.438 481.312Z" fill="#7CB342"/>
<path d="M129.125 416.625H258.5V445.375H129.125V416.625Z" fill="#7CB342"/>
</g>
<defs>
<clipPath id="clip0_74_6348">
<rect width="632" height="632" fill="white"/>
</clipPath>
</defs>
</svg>
