<svg width="632" height="632" viewBox="0 0 632 632" fill="none" xmlns="http://www.w3.org/2000/svg">
<g clip-path="url(#clip0_152_7195)">
<circle cx="316" cy="316" r="316" fill="#C9FCAC"/>
<path d="M475.72 392.559L389.357 185.288C385.185 175.276 371 175.276 366.828 185.288L280.465 392.559C251.438 462.224 302.623 539 378.093 539C453.563 539 504.747 462.224 475.72 392.559Z" fill="#69DDFC"/>
<path d="M337.338 392.559L406.529 226.5L389.357 185.288C385.185 175.276 371 175.276 366.828 185.288L280.465 392.559C251.438 462.224 302.622 539 378.093 539C388.038 539 397.555 537.655 406.529 535.181C347.404 518.878 312.135 453.044 337.338 392.559Z" fill="#32D3FB"/>
<path d="M248.749 305.185L197.519 182.234C195.045 176.294 186.63 176.294 184.156 182.234L132.926 305.185C115.707 346.509 146.069 392.053 190.837 392.053C235.605 392.053 265.969 346.509 248.749 305.185Z" fill="#69DDFC"/>
<path d="M171.939 303.676L210.03 212.258L197.52 182.233C195.046 176.293 186.631 176.293 184.156 182.233L132.926 305.185C115.707 346.51 146.069 392.053 190.838 392.053C198.61 392.053 205.947 390.678 212.676 388.193C177.789 378.379 157.034 339.451 171.939 303.676Z" fill="#32D3FB"/>
<path d="M311.813 146.365L282.313 75.5653C280.888 72.1449 276.043 72.1449 274.618 75.5653L245.118 146.365C235.203 170.161 252.686 196.386 278.465 196.386C304.244 196.386 321.728 170.161 311.813 146.365Z" fill="#69DDFC"/>
<path d="M282.624 146.365L297.219 111.337L282.313 75.5653C280.888 72.1449 276.043 72.1449 274.618 75.5653L245.118 146.365C235.203 170.161 252.686 196.386 278.465 196.386C285.456 196.386 291.828 194.445 297.218 191.16C282.733 182.329 275.397 163.708 282.624 146.365Z" fill="#62DDFC"/>
<path d="M413.693 496.665C411.45 493.495 412.201 489.107 415.371 486.863C438.503 470.491 451.211 438.627 438.261 407.547C436.768 403.962 438.462 399.845 442.047 398.351C445.633 396.857 449.749 398.552 451.244 402.137C466.942 439.813 451.582 478.464 423.497 498.342C420.327 500.585 415.937 499.835 413.693 496.665Z" fill="#AFE9FE"/>
<path d="M202.12 361.501C199.877 358.331 200.628 353.942 203.798 351.699C214.121 344.392 219.818 330.157 214.029 316.263C212.535 312.678 214.231 308.561 217.815 307.067C221.399 305.575 225.517 307.268 227.011 310.854C235.414 331.022 227.503 352.151 211.923 363.178C208.754 365.421 204.365 364.671 202.12 361.501Z" fill="#AFE9FE"/>
</g>
<defs>
<clipPath id="clip0_152_7195">
<rect width="632" height="632" fill="white"/>
</clipPath>
</defs>
</svg>
